<svg xmlns="http://www.w3.org/2000/svg" viewBox="0 0 2937 2937"><rect width="2937" height="2937" rx="646" fill="#0B0B0C"/><g transform="translate(373 609)" fill="#C9A96A"><path fill="#C9A96A" fill-rule="evenodd" d="M150 1685C128 1678 125 1650 146 1639C150 1637 151 1636 220 1636C258 1636 290 1635 291 1635C293 1633 292 1632 281 1614C268 1594 246 1559 237 1542C233 1535 225 1521 220 1512C197 1471 167 1411 137 1344C117 1301 92 1235 78 1186C71 1164 64 1141 64 1138C63 1137 61 1126 58 1115C55 1104 52 1092 52 1087C51 1083 49 1074 48 1068C45 1057 42 1039 38 1012C32 968 29 865 34 834C35 828 37 818 38 811C39 800 41 791 48 760C66 681 115 596 175 540C225 493 287 453 346 428C350 427 360 422 370 418C421 397 483 383 536 380C558 379 588 380 606 382C627 385 631 386 647 390C667 394 664 396 684 369C699 348 704 341 729 312C816 207 952 101 1073 43C1097 31 1094 31 1120 44C1269 118 1408 235 1507 369C1525 394 1525 394 1535 392C1581 381 1614 378 1654 380C1674 381 1675 381 1692 383C1714 387 1723 388 1730 390C1734 391 1743 393 1749 394C1763 398 1803 411 1815 416C1820 418 1828 421 1834 424C1973 481 2077 580 2123 698C2129 713 2142 753 2143 762C2144 766 2146 775 2148 782C2153 800 2157 838 2159 865C2160 886 2160 931 2159 948C2157 975 2155 997 2152 1014C2151 1023 2149 1035 2148 1041C2148 1046 2146 1054 2146 1057C2145 1061 2143 1068 2142 1074C2126 1155 2089 1269 2053 1348C2050 1354 2041 1373 2033 1390C2001 1460 1950 1554 1909 1616C1900 1629 1898 1634 1899 1635C1899 1635 1931 1636 1970 1636C2040 1636 2041 1637 2045 1639C2066 1650 2062 1679 2038 1685C2026 1689 1779 1687 1778 1684C1778 1679 1801 1640 1859 1548C1955 1398 1997 1321 2036 1224C2052 1184 2076 1110 2080 1088C2081 1086 2082 1079 2083 1072C2097 1010 2104 924 2098 872C2098 867 2097 857 2096 851C2093 822 2084 772 2075 744C2073 737 2071 728 2069 723C2066 711 2062 702 2060 702C2059 702 2059 703 2061 728C2070 818 2063 935 2046 1010C2045 1014 2041 1029 2038 1045C2034 1061 2030 1076 2029 1080C2024 1100 2008 1150 2002 1166C1987 1207 1979 1229 1973 1242C1970 1249 1964 1264 1959 1274C1923 1357 1862 1464 1802 1550C1766 1600 1705 1678 1696 1685C1693 1687 1484 1689 1479 1686C1476 1685 1477 1682 1488 1661C1504 1630 1516 1605 1532 1566C1540 1549 1554 1512 1560 1496C1562 1490 1566 1479 1569 1472C1589 1414 1610 1331 1622 1266C1627 1236 1628 1231 1630 1216C1631 1208 1633 1195 1634 1186C1635 1178 1637 1161 1638 1148C1639 1136 1640 1121 1641 1115C1647 1056 1646 939 1640 868C1639 859 1637 844 1637 834C1634 803 1630 781 1628 782C1626 784 1626 789 1625 822C1622 924 1614 1029 1602 1118C1601 1124 1599 1135 1598 1143C1597 1151 1595 1162 1594 1168C1593 1175 1591 1185 1590 1191C1584 1230 1580 1250 1574 1274C1573 1279 1571 1287 1570 1294C1569 1300 1565 1314 1562 1326C1559 1338 1556 1349 1556 1351C1553 1363 1544 1398 1535 1425C1529 1442 1524 1459 1523 1463C1512 1496 1486 1560 1465 1602C1452 1629 1428 1670 1419 1683C1416 1687 1416 1687 1359 1687C1299 1687 1296 1687 1288 1680C1277 1671 1276 1653 1288 1643C1296 1636 1296 1636 1345 1636C1378 1636 1389 1636 1390 1635C1392 1633 1426 1549 1436 1522C1439 1513 1447 1492 1453 1475C1466 1439 1490 1364 1498 1334C1499 1330 1501 1323 1502 1320C1516 1269 1516 1271 1513 1269C1509 1267 680 1268 678 1270C675 1272 675 1271 680 1289C685 1306 690 1325 694 1340C697 1349 700 1360 715 1405C726 1442 745 1496 761 1538C771 1566 799 1634 800 1635C800 1635 821 1636 846 1636C897 1637 896 1636 904 1643C917 1656 912 1678 895 1685C890 1687 779 1688 775 1686C774 1686 768 1677 762 1667C722 1602 688 1526 661 1440C656 1425 651 1409 650 1406C646 1395 644 1386 633 1345C631 1335 628 1323 627 1318C624 1309 622 1300 616 1271C614 1260 611 1247 610 1242C609 1238 607 1227 606 1218C604 1210 602 1200 601 1196C598 1178 594 1152 592 1133C591 1127 589 1116 588 1108C585 1089 584 1081 582 1060C581 1050 579 1035 579 1028C573 976 568 892 565 805C564 770 562 769 558 800C556 814 555 828 550 878C546 927 545 1014 548 1074C549 1104 550 1117 554 1156C556 1186 564 1239 567 1254C567 1257 569 1264 570 1272C571 1279 573 1289 574 1294C578 1311 580 1322 582 1330C583 1335 584 1340 585 1342C586 1349 602 1408 606 1421C608 1428 611 1439 613 1444C616 1453 621 1468 632 1498C637 1515 653 1554 662 1573C666 1583 670 1594 672 1598C674 1601 684 1622 695 1644C710 1675 714 1684 713 1685C712 1687 502 1688 497 1686C495 1685 489 1678 482 1671C379 1548 287 1401 228 1264C210 1224 210 1225 197 1188C185 1158 181 1146 173 1119C172 1114 170 1107 168 1103C162 1082 161 1078 147 1020C143 998 137 969 134 944C124 871 123 801 130 725C133 694 131 692 123 719C113 753 112 754 106 782C92 844 86 950 94 991C95 992 96 1000 96 1007C98 1024 104 1056 108 1075C109 1080 111 1087 111 1090C137 1207 206 1352 317 1525C397 1650 417 1684 411 1686C407 1688 156 1687 150 1685ZM630 1635C632 1633 634 1638 605 1564C598 1545 585 1509 576 1482C560 1432 559 1430 549 1395C546 1384 543 1372 542 1368C537 1350 536 1346 533 1332C531 1323 527 1307 525 1296C516 1257 515 1254 510 1226C510 1221 508 1213 508 1208C507 1203 506 1197 505 1194C503 1184 500 1160 498 1141C497 1130 495 1113 494 1104C491 1072 489 1023 489 978C489 938 490 925 494 877C495 858 495 855 498 834C503 800 504 792 507 779C509 771 511 761 512 757C512 752 513 748 514 747C514 746 515 742 515 738C527 673 571 556 613 481C625 457 627 455 623 453C606 447 532 445 499 450C494 451 488 452 485 452C457 456 405 472 368 488C276 529 213 599 189 685C187 692 185 702 183 707C182 712 181 719 180 723C180 727 178 737 177 744C173 772 172 829 175 856C176 861 177 873 178 882C180 899 181 907 187 936C189 951 201 997 206 1014C208 1023 211 1034 213 1039C240 1139 318 1307 402 1450C449 1531 516 1633 524 1636C527 1638 628 1636 630 1635ZM1668 1636C1675 1634 1743 1529 1783 1460C1792 1446 1802 1429 1806 1423C1879 1298 1952 1134 1986 1013C1987 1009 1989 1003 1990 1001C1992 992 2003 947 2004 940C2004 936 2006 927 2007 920C2019 860 2021 788 2014 744C2013 738 2012 730 2011 727C2010 715 2002 684 1996 667C1967 587 1907 525 1822 488C1793 475 1758 463 1734 458C1728 457 1721 455 1718 454C1714 454 1709 453 1706 452C1703 452 1697 451 1692 450C1659 445 1585 447 1568 453C1564 455 1565 457 1580 484C1591 503 1612 548 1620 566C1623 573 1626 582 1628 586C1641 617 1655 659 1666 700C1671 719 1675 735 1675 738C1676 740 1677 746 1678 751C1685 786 1687 796 1690 816C1691 825 1693 836 1694 842C1695 855 1696 865 1698 892C1699 904 1701 919 1701 926C1702 944 1702 1014 1701 1050C1699 1081 1698 1090 1695 1118C1695 1125 1693 1137 1692 1145C1691 1160 1689 1173 1686 1192C1683 1211 1680 1227 1678 1240C1677 1248 1675 1257 1674 1262C1669 1283 1664 1306 1662 1314C1662 1317 1660 1325 1658 1332C1656 1343 1654 1352 1650 1364C1649 1368 1646 1380 1643 1391C1639 1402 1636 1416 1634 1422C1630 1436 1598 1533 1592 1546C1590 1553 1582 1573 1574 1592C1560 1629 1559 1633 1561 1635C1564 1637 1664 1638 1668 1636ZM1530 1204C1531 1203 1532 1200 1533 1196C1541 1161 1545 1139 1548 1120C1548 1118 1550 1106 1552 1094C1554 1082 1557 1066 1558 1057C1559 1048 1561 1039 1561 1036C1561 1032 1562 1024 1563 1018C1564 1012 1565 1001 1566 994C1566 987 1567 974 1568 966C1569 957 1569 948 1570 946C1572 927 1573 833 1571 796C1568 738 1561 679 1550 631C1549 626 1548 621 1547 619C1546 612 1536 571 1534 566C1510 490 1504 474 1499 474C1496 474 1475 485 1459 496C1370 555 1306 652 1284 760C1283 762 1283 764 1283 765C1282 766 1276 801 1276 804C1276 806 1279 808 1284 808C1326 808 1346 864 1310 878C1242 904 1222 773 1273 635C1283 609 1282 609 1262 629C1213 677 1175 726 1118 815C1100 842 1117 799 1144 748C1229 587 1337 474 1463 416C1473 411 1473 412 1459 386C1382 248 1257 132 1122 72C1094 60 1097 60 1074 70C936 131 811 246 732 385C717 412 717 412 729 417C855 470 985 613 1067 790C1082 822 1084 833 1071 812C1027 741 981 682 932 632C910 610 908 610 917 632C969 771 950 905 882 878C844 863 865 808 908 808C917 808 916 794 906 754C905 750 903 743 902 738C874 628 800 531 705 480C690 472 690 472 686 480C678 500 665 538 660 554C650 591 646 606 641 630C637 647 635 662 632 676C632 682 631 687 630 688C630 689 628 708 625 730C616 807 617 929 626 1000C627 1004 627 1012 628 1018C629 1029 630 1037 634 1064C635 1072 636 1080 636 1082C637 1084 638 1090 638 1094C639 1099 641 1109 642 1118C646 1141 648 1146 654 1178C655 1182 657 1190 658 1194C658 1199 660 1203 661 1204C664 1207 1527 1207 1530 1204Z"/></g></svg>